<svg width="1024" height="1024" viewBox="0 0 1024 1024" fill="none" xmlns="http://www.w3.org/2000/svg">
<g filter="url(#filter0_d_402_442)">
<rect x="100" y="100" width="824" height="824" rx="184" fill="url(#paint0_linear_402_442)"/>
</g>
<mask id="mask0_402_442" style="mask-type:alpha" maskUnits="userSpaceOnUse" x="100" y="100" width="824" height="824">
<rect x="100" y="100" width="824" height="824" rx="184" fill="url(#paint1_linear_402_442)"/>
</mask>
<g mask="url(#mask0_402_442)">
<g filter="url(#filter1_d_402_442)">
<rect x="100" y="100" width="824" height="824" rx="184" fill="url(#paint2_linear_402_442)"/>
</g>
<g filter="url(#filter2_d_402_442)">
<rect x="154" y="154" width="716" height="716" rx="130" stroke="black" stroke-width="108"/>
</g>
<path fill-rule="evenodd" clip-rule="evenodd" d="M633.28 158H390.72C340.006 158 305.342 158.042 278.474 160.165C252.25 162.237 238.423 166.02 228.568 170.849C203.456 183.15 183.15 203.456 170.849 228.568C166.02 238.423 162.237 252.25 160.165 278.474C158.042 305.342 158 340.006 158 390.72V633.28C158 683.994 158.042 718.658 160.165 745.526C162.237 771.75 166.02 785.577 170.849 795.432C183.15 820.544 203.456 840.849 228.568 853.151C238.423 857.98 252.25 861.763 278.474 863.835C305.342 865.958 340.006 866 390.72 866H633.28C683.994 866 718.658 865.958 745.526 863.835C771.75 861.763 785.577 857.98 795.432 853.151C820.544 840.849 840.849 820.544 853.151 795.432C857.98 785.577 861.763 771.75 863.835 745.526C865.958 718.658 866 683.994 866 633.28V390.72C866 340.006 865.958 305.342 863.835 278.474C861.763 252.25 857.98 238.423 853.151 228.568C840.849 203.456 820.544 183.15 795.432 170.849C785.577 166.02 771.75 162.237 745.526 160.165C718.658 158.042 683.994 158 633.28 158ZM118.763 203.051C100 241.351 100 291.141 100 390.72V633.28C100 732.859 100 782.649 118.763 820.949C136.728 857.619 166.381 887.272 203.051 905.237C241.351 924 291.141 924 390.72 924H633.28C732.859 924 782.649 924 820.949 905.237C857.619 887.272 887.272 857.619 905.237 820.949C924 782.649 924 732.859 924 633.28V390.72C924 291.141 924 241.351 905.237 203.051C887.272 166.381 857.619 136.728 820.949 118.763C782.649 100 732.859 100 633.28 100H390.72C291.141 100 241.351 100 203.051 118.763C166.381 136.728 136.728 166.381 118.763 203.051Z" fill="url(#paint3_linear_402_442)"/>
<path d="M160 747C162.072 773.224 165.855 787.051 170.683 796.907C182.985 822.018 203.291 842.324 228.403 854.626C238.258 859.454 252.085 863.237 278.309 865.309C305.177 867.432 339.841 867.474 390.555 867.474H633.115C683.829 867.474 718.493 867.432 745.36 865.309C771.584 863.237 785.412 859.454 795.267 854.626C820.379 842.324 840.684 822.018 852.986 796.907C857.814 787.051 861.598 773.224 863.67 747" stroke="url(#paint4_linear_402_442)" stroke-opacity="0.33" stroke-width="11"/>
<path d="M124.151 816.309C141.53 851.784 170.216 880.47 205.691 897.849C223.879 906.759 245.054 911.356 274.378 913.673C303.77 915.996 340.835 916 390.72 916H633.28C683.165 916 720.23 915.996 749.622 913.673C778.946 911.356 800.121 906.759 818.309 897.849C853.784 880.47 882.47 851.784 899.849 816.309L905.237 818.949C887.272 855.619 857.619 885.272 820.949 903.237C782.649 922 732.859 922 633.28 922H390.72C291.141 922 241.351 922 203.051 903.237C166.381 885.272 136.728 855.619 118.763 818.949L124.151 816.309Z" fill="black" fill-opacity="0.24"/>
</g>
<g clip-path="url(#clip0_402_442)">
<rect x="255" y="527" width="211" height="38" rx="19" fill="#55F9D2"/>
<rect x="255" y="584" width="152" height="38" rx="19" fill="#55F9D2" fill-opacity="0.65"/>
<rect x="255" y="641" width="269" height="38" rx="19" fill="#55F9D2" fill-opacity="0.26"/>
<rect x="255" y="698" width="316" height="38" rx="19" fill="#55F9D2" fill-opacity="0.71"/>
<rect x="255" y="755" width="105" height="38" rx="19" fill="#55F9D2" fill-opacity="0.26"/>
</g>
<g filter="url(#filter3_i_402_442)">
<path d="M607.177 758.867C602.462 771.631 600.104 778.013 601.49 781.808C602.746 785.247 605.631 787.836 609.185 788.714C613.108 789.683 619.199 786.65 631.379 780.585L780.721 706.224C791.021 701.095 796.171 698.531 797.804 695.122C799.288 692.024 799.24 688.412 797.675 685.355C795.952 681.99 790.735 679.563 780.303 674.71L629.041 604.336C616.704 598.596 610.535 595.726 606.64 596.798C603.11 597.77 600.294 600.435 599.13 603.906C597.845 607.737 600.371 614.054 605.424 626.688L629.222 686.194C630.136 688.48 630.593 689.623 630.788 690.803C630.968 691.894 630.983 693.006 630.832 694.102C630.668 695.287 630.242 696.441 629.388 698.75L607.177 758.867Z" fill="#55F9D2"/>
</g>
<path d="M276.115 498.27C268.834 498.27 263.076 496.407 258.843 492.682C254.694 488.872 252.62 483.707 252.62 477.188C252.62 470.584 254.821 465.419 259.224 461.694C263.711 457.884 269.85 455.979 277.639 455.979H297.07V449.502C297.07 445.692 295.885 442.729 293.514 440.612C291.143 438.495 287.799 437.437 283.481 437.437C279.671 437.437 276.496 438.284 273.956 439.977C271.416 441.586 269.934 443.745 269.511 446.454H256.049C256.811 440.189 259.69 435.193 264.685 431.468C269.765 427.743 276.157 425.88 283.862 425.88C292.159 425.88 298.721 427.997 303.547 432.23C308.373 436.379 310.786 442.051 310.786 449.248V497H297.451V484.173H295.165L297.451 481.633C297.451 486.713 295.504 490.777 291.609 493.825C287.714 496.788 282.55 498.27 276.115 498.27ZM280.179 487.729C285.09 487.729 289.111 486.501 292.244 484.046C295.461 481.506 297.07 478.289 297.07 474.394V465.25H277.893C274.337 465.25 271.501 466.224 269.384 468.171C267.352 470.118 266.336 472.785 266.336 476.172C266.336 479.728 267.564 482.564 270.019 484.681C272.474 486.713 275.861 487.729 280.179 487.729ZM356.837 498.143C351.842 498.143 347.439 497.339 343.629 495.73C339.904 494.121 336.941 491.92 334.739 489.126C332.623 486.247 331.395 482.861 331.056 478.966H344.772C345.111 481.252 346.339 483.115 348.455 484.554C350.572 485.909 353.366 486.586 356.837 486.586H362.298C366.447 486.586 369.58 485.739 371.696 484.046C373.813 482.353 374.871 480.109 374.871 477.315C374.871 474.606 373.898 472.489 371.95 470.965C370.088 469.356 367.294 468.298 363.568 467.79L354.551 466.393C347.101 465.208 341.597 463.091 338.041 460.043C334.57 456.91 332.834 452.296 332.834 446.2C332.834 439.765 334.909 434.812 339.057 431.341C343.291 427.785 349.514 426.007 357.726 426.007H362.552C369.834 426.007 375.633 427.7 379.951 431.087C384.354 434.389 386.852 438.834 387.444 444.422H373.728C373.39 442.39 372.247 440.739 370.299 439.469C368.437 438.199 365.854 437.564 362.552 437.564H357.726C353.747 437.564 350.826 438.326 348.963 439.85C347.185 441.289 346.296 443.448 346.296 446.327C346.296 448.867 347.101 450.772 348.709 452.042C350.318 453.312 352.816 454.201 356.202 454.709L365.473 456.233C373.347 457.334 379.105 459.535 382.745 462.837C386.471 466.054 388.333 470.753 388.333 476.934C388.333 483.623 386.132 488.83 381.729 492.555C377.411 496.28 370.934 498.143 362.298 498.143H356.837ZM408.35 497V404.29H422.066V455.217H434.385L452.927 427.15H468.421L446.196 460.678L468.802 497H453.054L434.385 467.028H422.066V497H408.35ZM512.059 498.27C506.302 498.27 501.222 497.212 496.819 495.095C492.501 492.894 489.157 489.761 486.786 485.697C484.5 481.548 483.357 476.722 483.357 471.219V452.931C483.357 447.343 484.5 442.517 486.786 438.453C489.157 434.389 492.501 431.299 496.819 429.182C501.222 426.981 506.302 425.88 512.059 425.88C520.441 425.88 527.172 428.081 532.252 432.484C537.332 436.887 539.999 442.898 540.253 450.518H526.537C526.283 446.539 524.886 443.448 522.346 441.247C519.806 439.046 516.377 437.945 512.059 437.945C507.403 437.945 503.72 439.257 501.01 441.882C498.301 444.422 496.946 448.063 496.946 452.804V471.219C496.946 475.96 498.301 479.643 501.01 482.268C503.72 484.893 507.403 486.205 512.059 486.205C516.377 486.205 519.806 485.104 522.346 482.903C524.886 480.702 526.283 477.611 526.537 473.632H540.253C539.999 481.252 537.332 487.263 532.252 491.666C527.172 496.069 520.441 498.27 512.059 498.27ZM557.095 497V427.15H568.525V436.04H571.065L569.16 438.707C569.16 434.812 570.218 431.722 572.335 429.436C574.451 427.065 577.288 425.88 580.844 425.88C584.654 425.88 587.575 427.362 589.607 430.325C591.723 433.288 592.782 437.352 592.782 442.517L589.734 436.04H594.56L592.528 438.707C592.528 434.812 593.586 431.722 595.703 429.436C597.904 427.065 600.825 425.88 604.466 425.88C608.784 425.88 612.17 427.531 614.626 430.833C617.081 434.05 618.309 438.368 618.309 443.787V497H606.117V444.168C606.117 441.543 605.524 439.511 604.339 438.072C603.238 436.633 601.629 435.913 599.513 435.913C597.396 435.913 595.745 436.633 594.56 438.072C593.459 439.427 592.909 441.416 592.909 444.041V497H582.622V444.168C582.622 441.459 582.029 439.427 580.844 438.072C579.658 436.633 577.965 435.913 575.764 435.913C573.647 435.913 572.038 436.633 570.938 438.072C569.922 439.427 569.414 441.416 569.414 444.041V497H557.095ZM658.899 498.27C651.872 498.27 646.241 495.899 642.008 491.158C637.775 486.417 635.658 480.024 635.658 471.981V452.296C635.658 444.168 637.775 437.733 642.008 432.992C646.241 428.251 651.872 425.88 658.899 425.88C664.656 425.88 669.228 427.489 672.615 430.706C676.002 433.839 677.695 438.157 677.695 443.66L674.774 440.485H677.949L677.568 424.229V404.29H691.284V497H677.695V483.665H674.774L677.695 480.49C677.695 485.993 676.002 490.354 672.615 493.571C669.228 496.704 664.656 498.27 658.899 498.27ZM663.598 486.332C667.916 486.332 671.303 485.02 673.758 482.395C676.298 479.686 677.568 475.96 677.568 471.219V452.931C677.568 448.19 676.298 444.507 673.758 441.882C671.303 439.173 667.916 437.818 663.598 437.818C659.111 437.818 655.597 439.13 653.057 441.755C650.517 444.295 649.247 448.02 649.247 452.931V471.219C649.247 476.13 650.517 479.897 653.057 482.522C655.597 485.062 659.111 486.332 663.598 486.332Z" fill="white"/>
<path d="M713.5 330L722.087 357.791L748 367L722.087 376.209L713.5 404L704.913 376.209L679 367L704.913 357.791L713.5 330Z" fill="#55F9D2" fill-opacity="0.71"/>
<defs>
<filter id="filter0_d_402_442" x="97" y="98" width="830" height="830" filterUnits="userSpaceOnUse" color-interpolation-filters="sRGB">
<feFlood flood-opacity="0" result="BackgroundImageFix"/>
<feColorMatrix in="SourceAlpha" type="matrix" values="0 0 0 0 0 0 0 0 0 0 0 0 0 0 0 0 0 0 127 0" result="hardAlpha"/>
<feOffset dy="1"/>
<feGaussianBlur stdDeviation="1.5"/>
<feColorMatrix type="matrix" values="0 0 0 0 0 0 0 0 0 0 0 0 0 0 0 0 0 0 0.6 0"/>
<feBlend mode="normal" in2="BackgroundImageFix" result="effect1_dropShadow_402_442"/>
<feBlend mode="normal" in="SourceGraphic" in2="effect1_dropShadow_402_442" result="shape"/>
</filter>
<filter id="filter1_d_402_442" x="97" y="98" width="830" height="830" filterUnits="userSpaceOnUse" color-interpolation-filters="sRGB">
<feFlood flood-opacity="0" result="BackgroundImageFix"/>
<feColorMatrix in="SourceAlpha" type="matrix" values="0 0 0 0 0 0 0 0 0 0 0 0 0 0 0 0 0 0 127 0" result="hardAlpha"/>
<feOffset dy="1"/>
<feGaussianBlur stdDeviation="1.5"/>
<feColorMatrix type="matrix" values="0 0 0 0 0 0 0 0 0 0 0 0 0 0 0 0 0 0 0.6 0"/>
<feBlend mode="normal" in2="BackgroundImageFix" result="effect1_dropShadow_402_442"/>
<feBlend mode="normal" in="SourceGraphic" in2="effect1_dropShadow_402_442" result="shape"/>
</filter>
<filter id="filter2_d_402_442" x="78" y="89" width="868" height="868" filterUnits="userSpaceOnUse" color-interpolation-filters="sRGB">
<feFlood flood-opacity="0" result="BackgroundImageFix"/>
<feColorMatrix in="SourceAlpha" type="matrix" values="0 0 0 0 0 0 0 0 0 0 0 0 0 0 0 0 0 0 127 0" result="hardAlpha"/>
<feOffset dy="11"/>
<feGaussianBlur stdDeviation="11"/>
<feColorMatrix type="matrix" values="0 0 0 0 0 0 0 0 0 0 0 0 0 0 0 0 0 0 0.28 0"/>
<feBlend mode="normal" in2="BackgroundImageFix" result="effect1_dropShadow_402_442"/>
<feBlend mode="normal" in="SourceGraphic" in2="effect1_dropShadow_402_442" result="shape"/>
</filter>
<filter id="filter3_i_402_442" x="598.799" y="596.577" width="200.086" height="204.315" filterUnits="userSpaceOnUse" color-interpolation-filters="sRGB">
<feFlood flood-opacity="0" result="BackgroundImageFix"/>
<feBlend mode="normal" in="SourceGraphic" in2="BackgroundImageFix" result="shape"/>
<feColorMatrix in="SourceAlpha" type="matrix" values="0 0 0 0 0 0 0 0 0 0 0 0 0 0 0 0 0 0 127 0" result="hardAlpha"/>
<feOffset dy="12"/>
<feGaussianBlur stdDeviation="6.5"/>
<feComposite in2="hardAlpha" operator="arithmetic" k2="-1" k3="1"/>
<feColorMatrix type="matrix" values="0 0 0 0 1 0 0 0 0 1 0 0 0 0 1 0 0 0 0.51 0"/>
<feBlend mode="normal" in2="shape" result="effect1_innerShadow_402_442"/>
</filter>
<linearGradient id="paint0_linear_402_442" x1="300" y1="88" x2="638" y2="1036" gradientUnits="userSpaceOnUse">
<stop stop-color="#131414"/>
<stop offset="1" stop-color="#4D4D4D"/>
</linearGradient>
<linearGradient id="paint1_linear_402_442" x1="300" y1="88" x2="638" y2="1036" gradientUnits="userSpaceOnUse">
<stop stop-color="#131414"/>
<stop offset="1" stop-color="#4D4D4D"/>
</linearGradient>
<linearGradient id="paint2_linear_402_442" x1="512" y1="100" x2="512" y2="924" gradientUnits="userSpaceOnUse">
<stop stop-color="#413F3F"/>
<stop offset="1"/>
</linearGradient>
<linearGradient id="paint3_linear_402_442" x1="543.5" y1="-4.5" x2="543.5" y2="1110" gradientUnits="userSpaceOnUse">
<stop stop-color="#484848"/>
<stop offset="0.0001" stop-color="#484848"/>
<stop offset="0.604167" stop-color="#262626"/>
<stop offset="0.760417" stop-color="#3E3E3E"/>
<stop offset="1" stop-color="#8F8F8F"/>
</linearGradient>
<linearGradient id="paint4_linear_402_442" x1="206" y1="769" x2="824" y2="767" gradientUnits="userSpaceOnUse">
<stop stop-color="white" stop-opacity="0"/>
<stop offset="0.517846" stop-color="white"/>
<stop offset="1" stop-color="white" stop-opacity="0"/>
</linearGradient>
<clipPath id="clip0_402_442">
<rect width="455" height="456" fill="white" transform="translate(255 527)"/>
</clipPath>
</defs>
</svg>
